# Blender 4.4.1
# www.blender.org
mtllib player.mtl
o Cube.001
v -0.237990 0.309128 0.199750
v -0.281170 -0.400158 0.084056
v -0.303746 0.309263 -0.302114
v -0.071827 -0.400158 -0.120103
v 0.237990 0.309128 0.199750
v 0.281170 -0.400158 0.084056
v 0.303746 0.309263 -0.302114
v -0.004300 -0.400158 -0.065233
v -0.327774 -0.226880 0.227115
v 0.400158 -0.085146 -0.373944
v -0.400158 -0.085146 -0.373944
v 0.327774 -0.226880 0.227115
v 0.059035 -0.400158 -0.119810
v -0.326535 0.562001 0.345958
v 0.326535 0.496279 0.407685
v -0.079999 -0.400158 -0.119810
v -0.654741 0.150220 -0.119810
v 0.442994 -0.151143 -0.119810
v 0.000000 -0.400158 0.065187
v 0.000000 -0.400158 -0.111472
v 0.000000 0.298784 0.268022
v 0.000000 -0.256495 0.426152
v 0.000000 -0.076400 -0.509822
v 0.000000 -0.400158 -0.119810
v 0.000000 0.709524 -0.189066
v 0.400158 0.200079 -0.318664
v -0.351098 0.200079 0.247973
v -0.400158 0.200079 -0.318664
v 0.351098 0.200079 0.247973
v -0.442994 0.368633 -0.119810
v 0.571313 0.200079 -0.119810
v 0.000000 0.057332 0.518809
v 0.000000 0.200079 -0.486347
v -0.261710 -0.326174 0.120610
v -0.265562 -0.269168 -0.334295
v 0.261710 -0.326174 0.120610
v 0.265562 -0.269168 -0.334295
v 0.374753 -0.312666 -0.119810
v -0.374753 -0.312666 -0.119810
v 0.000000 -0.269168 -0.400158
v 0.000000 -0.362013 0.340150
v 0.000000 0.410977 -0.353183
v 0.166579 0.373404 -0.380124
v -0.166579 0.373404 -0.380124
v 0.000000 0.450291 -0.348016
v 0.000000 0.300111 -0.464338
v 0.000000 0.677550 0.697686
v -0.166664 0.523616 0.083221
v 0.158339 0.548651 0.069620
vn -0.5887 0.5998 -0.5419
vn 0.3483 0.4335 -0.8311
vn 0.8403 -0.2016 0.5032
vn -0.0333 -0.9956 0.0879
vn -0.0000 -1.0000 -0.0000
vn -0.0001 -1.0000 -0.0000
vn -0.5482 0.5760 -0.6063
vn -0.2353 0.7002 0.6741
vn -0.4669 -0.7724 0.4305
vn -0.7527 -0.4553 -0.4755
vn 0.8519 -0.3599 0.3803
vn 0.2107 -0.4834 -0.8497
vn 0.8079 -0.3413 -0.4805
vn -0.8016 -0.4849 0.3497
vn -0.9702 0.0002 0.2425
vn 0.6011 0.6092 -0.5173
vn 0.8508 -0.1362 0.5075
vn 0.8631 0.4408 0.2463
vn 0.9032 0.2097 0.3744
vn 0.8541 -0.0026 0.5201
vn -0.2107 -0.4834 -0.8497
vn 0.4669 -0.7724 0.4305
vn 0.2353 0.7002 0.6741
vn -0.0000 1.0000 -0.0000
vn -0.3483 0.4335 -0.8311
vn -0.7284 0.6293 -0.2710
vn -0.3221 0.0801 -0.9433
vn 0.5195 -0.2420 0.8195
vn 0.9118 -0.3331 -0.2402
vn -0.7642 -0.0731 0.6408
vn -0.5195 -0.2420 0.8195
vn -0.4245 0.4116 -0.8065
vn 0.9512 -0.0667 0.3013
vn 0.3221 0.0801 -0.9433
vn -0.0596 -0.4547 0.8886
vn 0.0678 -0.8227 -0.5645
vn -0.2740 -0.9230 -0.2703
vn -0.6387 -0.2066 -0.7412
vn 0.4713 -0.8809 0.0438
vn 0.2564 -0.9253 -0.2794
vn -0.0183 -0.8602 -0.5096
vn 0.0596 -0.4547 0.8886
vn 0.7557 0.6270 -0.1895
vn 0.5078 0.0393 -0.8606
vn -0.6574 -0.3992 0.6392
vn -0.0819 0.9276 -0.3646
vn -0.2046 0.5655 0.7989
vn -0.4668 -0.5587 0.6855
vn -0.7677 -0.6062 -0.2076
vn 0.7651 -0.6333 0.1159
vn 0.2872 -0.3978 -0.8714
vn 0.7442 -0.6052 -0.2826
vn -0.7883 -0.6101 0.0798
vn 0.5737 -0.2501 0.7800
vn 0.5005 0.8331 -0.2356
vn -0.8963 -0.1174 0.4277
vn -0.8292 -0.1797 0.5293
vn -0.9062 0.2061 0.3693
vn -0.8843 0.3841 0.2654
vn -0.2872 -0.3978 -0.8714
vn 0.4668 -0.5587 0.6855
vn 0.2046 0.5655 0.7989
vn -0.3707 0.1996 -0.9070
vn 0.0767 0.5212 -0.8500
vn -0.3805 0.1760 -0.9079
vn 0.6274 -0.0722 0.7753
vn 0.7519 0.1254 -0.6472
vn -0.6426 0.6230 0.4461
vn -0.6274 -0.0722 0.7753
vn -0.9672 0.0483 -0.2493
vn 0.8187 -0.2991 0.4902
vn 0.3805 0.1760 -0.9079
vn 0.2434 -0.9607 0.1333
vn -0.1019 -0.9059 -0.4110
vn -0.9040 0.0270 0.4266
vn 0.2535 -0.9148 -0.3146
vn 0.1019 -0.9059 -0.4110
vn 0.9040 0.0270 0.4266
vn -0.2695 -0.9078 -0.3213
vn -0.2434 -0.9607 0.1333
vn -0.1298 0.1292 -0.9831
vn 0.0454 0.7073 -0.7055
vn -0.0454 0.7073 -0.7055
vn 0.1298 0.1292 -0.9831
vn -0.0767 0.5212 -0.8500
vn 0.3707 0.1996 -0.9070
vn -0.5078 0.0393 -0.8606
vn 0.5887 0.5998 -0.5419
vn -0.7261 0.6872 0.0248
vn 0.6912 0.7222 0.0260
vt 0.515772 0.821781
vt 0.625388 0.756933
vt 0.569689 0.225805
vt 0.457986 0.264329
vt 0.429697 0.225223
vt 0.397931 0.822627
vt 0.389066 0.956474
vt 0.355902 0.823799
vt 0.862494 0.138393
vt 0.750467 0.058770
vt 0.857659 0.028456
vt 0.675641 0.823799
vt 0.660182 0.736860
vt 0.517188 0.737135
vt 0.334838 0.645227
vt 0.517188 0.581217
vt 0.517188 0.388751
vt 0.325537 0.474099
vt 0.359433 0.434307
vt 0.110740 0.657075
vt 0.019329 0.618780
vt 0.106118 0.612450
vt 0.884813 0.688697
vt 0.790866 0.611851
vt 0.882443 0.625998
vt 0.569714 0.153607
vt 0.474942 0.055763
vt 0.570099 0.056092
vt 0.952990 0.629390
vt 0.219683 0.600428
vt 0.642477 0.956474
vt 0.633612 0.822627
vt 0.764355 0.216352
vt 0.870111 0.311580
vt 0.406155 0.756933
vt 0.371361 0.736860
vt 0.429885 0.955374
vt 0.458630 0.910663
vt 0.515772 0.919001
vt 0.515772 0.954859
vt 0.601658 0.955374
vt 0.575918 0.915336
vt 0.967098 0.207436
vt 0.963866 0.133935
vt 0.660581 0.055763
vt 0.691979 0.467962
vt 0.658083 0.418794
vt 0.691979 0.649194
vt 0.967098 0.049243
vt 0.670317 0.264329
vt 0.709424 0.225223
vt 0.710853 0.153090
vt 0.517188 0.442643
vt 0.972185 0.735586
vt 0.882216 0.810991
vt 0.209728 0.792111
vt 0.225626 0.638010
vt 0.102460 0.779974
vt 0.016302 0.709726
vt 0.746115 0.804735
vt 0.756107 0.652225
vt 0.431125 0.153090
vt 0.517188 0.341594
vt 0.691979 0.341801
vt 0.570336 0.008947
vt 0.674689 0.008593
vt 0.207764 0.573581
vt 0.096827 0.574660
vt 0.878201 0.586679
vt 0.962768 0.586949
vt 0.464676 0.008593
vt 0.805420 0.588031
vt 0.019430 0.581906
vt 0.325537 0.348274
vt 0.761122 0.142851
vt 0.371600 0.720303
vt 0.646430 0.725667
vt 0.966017 0.805340
vt 0.016734 0.777480
vt 0.515772 0.758768
vt 0.569066 0.297090
s 1
usemtl Material.001
f 25/1/1 44/2/1 3/2/1
f 33/3/2 7/4/2 26/5/2
f 15/6/3 29/7/3 31/8/3
f 24/9/4 4/10/5 20/11/6
f 30/12/7 3/2/7 28/13/7
f 21/14/8 27/15/8 32/16/8
f 41/17/9 9/18/9 34/19/9
f 17/20/10 35/21/10 39/22/10
f 18/23/11 36/24/11 38/25/11
f 23/26/12 37/27/12 40/28/12
f 37/29/13 18/23/13 38/25/13
f 34/30/14 17/20/14 39/22/14
f 27/31/15 14/32/15 30/12/15
f 2/33/5 24/9/4 19/34/5
f 7/35/16 31/8/16 26/36/16
f 5/37/17 49/38/18 47/39/19 21/40/17
f 1/41/20 48/42/20 25/1/20 14/32/20
f 6/43/5 24/9/4 13/44/5
f 35/45/21 23/26/21 40/28/21
f 12/46/22 41/17/22 36/47/22
f 29/48/23 21/14/23 32/16/23
f 24/9/4 8/49/24 13/44/5
f 3/50/25 33/3/25 28/51/25
f 25/1/26 3/2/26 14/32/26
f 11/52/27 33/3/27 23/26/27
f 12/46/28 32/16/28 22/53/28
f 10/54/29 31/55/29 18/23/29
f 27/56/30 17/20/30 9/57/30
f 32/16/31 9/18/31 22/53/31
f 30/58/32 11/59/32 17/20/32
f 18/23/33 29/60/33 12/61/33
f 33/3/34 10/62/34 23/26/34
f 36/47/35 19/63/35 6/64/35
f 35/45/36 20/65/36 4/66/36
f 2/67/37 39/22/37 16/68/37
f 37/29/38 13/69/38 8/70/38
f 20/65/39 37/27/39 8/71/39
f 38/25/40 6/72/40 13/69/40
f 16/68/41 35/21/41 4/73/41
f 19/63/42 34/19/42 2/74/42
f 25/1/43 15/6/43 7/35/43
f 33/3/44 43/4/44 7/4/44
f 15/6/45 5/37/45 29/7/45
f 24/9/4 16/75/5 4/10/5
f 30/12/46 14/32/46 3/2/46
f 21/14/47 1/76/47 27/15/47
f 41/17/48 22/53/48 9/18/48
f 17/20/49 11/59/49 35/21/49
f 18/23/50 12/61/50 36/24/50
f 23/26/51 10/62/51 37/27/51
f 37/29/52 10/54/52 18/23/52
f 34/30/53 9/57/53 17/20/53
f 27/31/54 1/41/54 14/32/54
f 2/33/5 16/75/5 24/9/4
f 7/35/55 15/6/55 31/8/55
f 5/37/56 15/6/56 25/1/56 49/38/56
f 1/41/57 21/40/57 47/39/58 48/42/59
f 6/43/5 19/34/5 24/9/4
f 35/45/60 11/52/60 23/26/60
f 12/46/61 22/53/61 41/17/61
f 29/48/62 5/77/62 21/14/62
f 24/9/4 20/11/6 8/49/24
f 33/3/63 44/50/63 46/3/63
f 25/1/64 43/35/64 45/1/64
f 11/52/65 28/51/65 33/3/65
f 12/46/66 29/48/66 32/16/66
f 10/54/67 26/78/67 31/55/67
f 27/56/68 30/58/68 17/20/68
f 32/16/69 27/15/69 9/18/69
f 30/58/70 28/79/70 11/59/70
f 18/23/71 31/55/71 29/60/71
f 33/3/72 26/5/72 10/62/72
f 36/47/73 41/17/73 19/63/73
f 35/45/74 40/28/74 20/65/74
f 2/67/75 34/30/75 39/22/75
f 37/29/76 38/25/76 13/69/76
f 20/65/77 40/28/77 37/27/77
f 38/25/78 36/24/78 6/72/78
f 16/68/79 39/22/79 35/21/79
f 19/63/80 41/17/80 34/19/80
f 45/1/81 43/35/81 42/80/81
f 46/3/82 42/81/82 43/4/82
f 44/50/83 42/81/83 46/3/83
f 45/1/84 42/80/84 44/2/84
f 25/1/85 45/1/85 44/2/85
f 33/3/86 46/3/86 43/4/86
f 33/3/87 3/50/87 44/50/87
f 25/1/88 7/35/88 43/35/88
f 48/42/59 47/39/58 25/1/89
f 47/39/19 49/38/18 25/1/90
