# Blender 4.4.1
# www.blender.org
mtllib enemy.mtl
o Cube
v 0.130617 0.129405 -0.769442
v 0.130617 -0.129405 -0.769442
v 0.130617 0.129405 0.769442
v 0.130617 -0.129405 0.769442
v -0.130617 0.129405 -0.769442
v -0.130617 -0.129405 -0.769442
v -0.130617 0.129405 0.769442
v -0.130617 -0.129405 0.769442
v 0.065309 -0.064702 -0.445865
v -0.065309 -0.064702 -0.455391
v 0.065309 0.064702 -0.438061
v -0.065309 0.064702 -0.438061
v 0.130617 0.000000 -0.769442
v -0.130617 0.000000 0.769442
v 0.130617 0.000000 0.769442
v -0.130617 0.000000 -0.769442
v -0.065309 0.000000 -0.446726
v 0.065309 0.000000 -0.441963
v 0.000000 -0.129405 -0.769442
v 0.000000 0.129405 0.769442
v 0.000000 -0.129405 0.769442
v 0.000000 0.129405 -0.769442
v 0.000000 0.064702 -0.438061
v 0.000000 -0.064702 -0.450628
v 0.000000 0.000000 -0.769442
v 0.000000 0.000000 1.136425
vn -0.0000 0.9815 0.1916
vn -0.6292 0.6351 0.4479
vn -0.9985 0.0024 -0.0539
vn -0.0048 -0.9804 0.1970
vn 0.9810 -0.0039 0.1941
vn -0.0000 -0.0000 -1.0000
vn -0.9808 -0.0087 0.1950
vn -0.0000 0.9986 -0.0535
vn 0.0013 -0.9986 -0.0531
vn 0.9985 0.0011 -0.0539
vn 0.9986 0.0011 -0.0537
vn -0.9794 -0.0090 0.2018
vn 0.9804 -0.0040 0.1971
vn -0.9986 0.0024 -0.0534
vn -0.6292 -0.6351 0.4479
vn 0.6292 -0.6351 0.4479
vn 0.0013 -0.9986 -0.0528
vn -0.0049 -0.9796 0.2008
vn 0.6292 0.6351 0.4479
vt 0.185945 0.459904
vt 0.221158 0.469134
vt 0.179693 0.555543
vt 0.160414 0.553622
vt 0.114839 0.960079
vt 0.151644 0.960348
vt 0.151490 0.997634
vt 0.114550 0.997483
vt 0.132578 0.003124
vt 0.164551 0.003882
vt 0.141479 0.302285
vt 0.125441 0.304044
vt 0.058690 0.457714
vt 0.090053 0.449314
vt 0.100792 0.548597
vt 0.080177 0.548713
vt 0.122395 0.450593
vt 0.154814 0.450520
vt 0.139947 0.551391
vt 0.121075 0.549969
vt 0.123063 0.417808
vt 0.155091 0.418298
vt 0.155685 0.386058
vt 0.123724 0.385426
vt 0.227259 0.918515
vt 0.187890 0.921527
vt 0.077333 0.923570
vt 0.041336 0.919450
vt 0.151763 0.924608
vt 0.115191 0.923198
vt 0.109403 0.305802
vt 0.091716 0.384709
vt 0.090964 0.417004
vt 0.100605 0.002366
vt 0.076885 0.959771
vt 0.077038 0.997634
vt 0.060627 0.548601
vt 0.002366 0.915236
vt 0.023295 0.465712
s 0
usemtl Material
f 22/1/1 5/2/1 12/3/1 23/4/1
f 26/5/2 20/6/2 7/7/2 14/8/2
f 14/9/3 7/10/3 12/11/3 17/12/3
f 19/13/4 2/14/4 9/15/4 24/16/4
f 13/17/5 1/18/5 11/19/5 18/20/5
f 25/21/6 22/22/6 1/18/6 13/17/6
f 17/12/7 12/11/7 5/23/7 16/24/7
f 23/4/8 12/3/8 7/25/8 20/26/8
f 24/16/9 9/15/9 4/27/9 21/28/9
f 18/20/10 11/19/10 3/29/10 15/30/10
f 9/15/11 18/20/11 15/30/11 4/27/11
f 10/31/12 17/12/12 16/24/12 6/32/12
f 19/33/6 25/21/6 13/17/6 2/14/6
f 2/14/13 13/17/13 18/20/13 9/15/13
f 8/34/14 14/9/14 17/12/14 10/31/14
f 21/35/15 26/5/15 14/8/15 8/36/15
f 4/27/16 15/30/16 26/5/16 21/35/16
f 6/32/6 16/24/6 25/21/6 19/33/6
f 10/37/17 24/16/17 21/28/17 8/38/17
f 11/19/8 23/4/8 20/26/8 3/29/8
f 16/24/6 5/23/6 22/22/6 25/21/6
f 6/39/18 19/13/18 24/16/18 10/37/18
f 15/30/19 3/29/19 20/6/19 26/5/19
f 1/18/1 22/1/1 23/4/1 11/19/1
