# Blender 4.4.1
# www.blender.org
mtllib deathParticle.mtl
o 球
v -0.067650 0.230970 0.067650
v -0.125000 0.176777 0.125000
v -0.163320 0.095671 0.163320
v -0.176777 0.000000 0.176777
v -0.163320 -0.095671 0.163320
v -0.125000 -0.176777 0.125000
v -0.067650 -0.230970 0.067650
v -0.095671 0.230970 -0.000000
v -0.176777 0.176777 -0.000000
v -0.230970 0.095671 -0.000000
v -0.250000 0.000000 0.000000
v -0.230970 -0.095671 0.000000
v -0.176777 -0.176777 0.000000
v -0.095671 -0.230970 0.000000
v -0.067650 0.230970 -0.067650
v -0.125000 0.176777 -0.125000
v -0.163320 0.095671 -0.163320
v -0.176777 -0.000000 -0.176777
v -0.163320 -0.095671 -0.163320
v -0.125000 -0.176777 -0.125000
v -0.067650 -0.230970 -0.067650
v 0.000000 0.230970 -0.095671
v 0.000000 0.176777 -0.176777
v 0.000000 0.095671 -0.230970
v 0.000000 -0.000000 -0.250000
v 0.000000 -0.095671 -0.230970
v 0.000000 -0.176777 -0.176777
v 0.000000 -0.230970 -0.095671
v 0.067650 0.230970 -0.067650
v 0.125000 0.176777 -0.125000
v 0.163320 0.095671 -0.163320
v 0.176777 -0.000000 -0.176777
v 0.163320 -0.095671 -0.163320
v 0.125000 -0.176777 -0.125000
v 0.067650 -0.230970 -0.067650
v 0.095671 0.230970 -0.000000
v 0.176777 0.176777 -0.000000
v 0.230970 0.095671 -0.000000
v 0.250000 0.000000 0.000000
v 0.230970 -0.095671 0.000000
v 0.176777 -0.176777 0.000000
v 0.095671 -0.230970 0.000000
v 0.067650 0.230970 0.067650
v 0.125000 0.176777 0.125000
v 0.163320 0.095671 0.163320
v 0.176777 0.000000 0.176777
v 0.163320 -0.095671 0.163320
v 0.125000 -0.176777 0.125000
v 0.067650 -0.230970 0.067650
v 0.000000 -0.250000 0.000000
v 0.000000 0.250000 -0.000000
v 0.000000 0.230970 0.095671
v 0.000000 0.176777 0.176777
v 0.000000 0.095671 0.230970
v 0.000000 0.000000 0.250000
v 0.000000 -0.095671 0.230970
v 0.000000 -0.176777 0.176777
v 0.000000 -0.230970 0.095671
vn -0.2243 -0.8103 0.5414
vn -0.3764 -0.1807 0.9087
vn -0.3764 -0.1808 0.9087
vn -0.3256 0.5253 0.7862
vn -0.0805 0.9776 0.1945
vn -0.0805 -0.9776 0.1945
vn -0.3256 -0.5253 0.7862
vn -0.3764 0.1807 0.9087
vn -0.3764 0.1808 0.9087
vn -0.2243 0.8103 0.5414
vn -0.1945 0.9776 0.0805
vn -0.1945 -0.9776 0.0805
vn -0.7862 -0.5253 0.3256
vn -0.9087 0.1808 0.3764
vn -0.9087 0.1807 0.3764
vn -0.5414 0.8103 0.2243
vn -0.5414 -0.8103 0.2243
vn -0.9087 -0.1808 0.3764
vn -0.9087 -0.1807 0.3764
vn -0.7862 0.5253 0.3256
vn -0.7862 -0.5253 -0.3256
vn -0.9087 0.1807 -0.3764
vn -0.5414 0.8103 -0.2243
vn -0.5414 -0.8103 -0.2243
vn -0.9087 -0.1807 -0.3764
vn -0.9087 -0.1808 -0.3764
vn -0.7862 0.5253 -0.3256
vn -0.1945 0.9776 -0.0805
vn -0.1945 -0.9776 -0.0805
vn -0.2243 -0.8103 -0.5414
vn -0.3764 -0.1807 -0.9087
vn -0.3256 0.5253 -0.7862
vn -0.0805 0.9776 -0.1945
vn -0.0805 -0.9776 -0.1945
vn -0.3256 -0.5253 -0.7862
vn -0.3764 0.1807 -0.9087
vn -0.3764 0.1808 -0.9087
vn -0.2243 0.8103 -0.5414
vn 0.3764 -0.1807 -0.9087
vn 0.3256 0.5253 -0.7862
vn 0.0805 0.9776 -0.1945
vn 0.0805 -0.9776 -0.1945
vn 0.3256 -0.5253 -0.7862
vn 0.3764 0.1807 -0.9087
vn 0.3764 0.1808 -0.9087
vn 0.2243 0.8103 -0.5414
vn 0.2243 -0.8103 -0.5414
vn 0.1945 -0.9776 -0.0805
vn 0.7862 -0.5253 -0.3256
vn 0.9087 0.1808 -0.3764
vn 0.9087 0.1807 -0.3764
vn 0.5414 0.8103 -0.2243
vn 0.5414 -0.8103 -0.2243
vn 0.9087 -0.1808 -0.3764
vn 0.9087 -0.1807 -0.3764
vn 0.7862 0.5253 -0.3256
vn 0.1945 0.9776 -0.0805
vn 0.9087 0.1807 0.3764
vn 0.9087 0.1808 0.3764
vn 0.5414 0.8103 0.2243
vn 0.5414 -0.8103 0.2243
vn 0.9087 -0.1807 0.3764
vn 0.7862 0.5253 0.3256
vn 0.1945 0.9776 0.0805
vn 0.1945 -0.9776 0.0805
vn 0.7862 -0.5253 0.3256
vn 0.2243 -0.8103 0.5414
vn 0.3764 -0.1807 0.9087
vn 0.3256 0.5253 0.7862
vn 0.0805 0.9776 0.1945
vn 0.0805 -0.9776 0.1945
vn 0.3256 -0.5253 0.7862
vn 0.3764 0.1807 0.9087
vn 0.3764 0.1808 0.9087
vn 0.2243 0.8103 0.5414
vn -0.9087 0.1808 -0.3764
vn -0.3764 -0.1808 -0.9087
vn 0.3764 -0.1808 -0.9087
vn 0.9087 -0.1808 0.3764
vn 0.3764 -0.1808 0.9087
vt 0.216330 0.325259
vt 0.145093 0.437921
vt 0.131538 0.357429
vt 0.277516 0.308838
vt 0.345587 0.398136
vt 0.294279 0.405087
vt 0.391204 0.293027
vt 0.459536 0.390397
vt 0.398149 0.393581
vt 0.557571 0.290426
vt 0.663292 0.334921
vt 0.556398 0.376521
vt 0.038926 0.414411
vt 0.235189 0.415371
vt 0.333309 0.297567
vt 0.456011 0.292909
vt 0.664625 0.412442
vt 0.561898 0.461943
vt 0.044383 0.487782
vt 0.151409 0.522041
vt 0.246064 0.505353
vt 0.357306 0.492638
vt 0.467915 0.482217
vt 0.305857 0.498262
vt 0.407899 0.487841
vt 0.251859 0.598308
vt 0.367297 0.587786
vt 0.481405 0.572120
vt 0.152694 0.609039
vt 0.314455 0.593685
vt 0.419354 0.581873
vt 0.671510 0.492125
vt 0.571781 0.546713
vt 0.044629 0.567125
vt 0.147892 0.698398
vt 0.380296 0.691400
vt 0.321507 0.696277
vt 0.437538 0.680210
vt 0.681103 0.569124
vt 0.586989 0.629091
vt 0.039955 0.647790
vt 0.252408 0.697649
vt 0.500455 0.663290
vt 0.326219 0.819285
vt 0.469512 0.792816
vt 0.696438 0.631498
vt 0.616151 0.705922
vt 0.027571 0.724587
vt 0.132214 0.789495
vt 0.242943 0.811708
vt 0.399815 0.810443
vt 0.538279 0.759988
vt 0.004209 0.785494
vt 0.093365 0.877431
vt 0.201191 0.960024
vt 0.438187 0.995096
vt 0.620117 0.862901
vt 0.320262 0.995791
vt 0.543339 0.943755
vt 0.718779 0.666580
vt 0.672440 0.766244
vt 0.278472 0.004209
vt 0.385836 0.174323
vt 0.314615 0.182553
vt 0.608879 0.118911
vt 0.465590 0.181908
vt 0.506055 0.039657
vt 0.101647 0.130496
vt 0.103974 0.282553
vt 0.050046 0.223594
vt 0.246905 0.199435
vt 0.176564 0.052977
vt 0.392204 0.004467
vt 0.694120 0.206986
vt 0.571613 0.203035
vt 0.004209 0.319661
vt 0.180065 0.230850
vt 0.672500 0.264070
vt 0.025302 0.354027
s 1
usemtl Material.004
f 57/1/1 7/2/1 58/3/1
f 56/4/2 4/5/2 5/6/3
f 54/7/4 2/8/4 3/9/4
f 52/10/5 51/11/5 1/12/5
f 50/13/6 58/3/6 7/2/6
f 56/4/7 6/14/7 57/1/7
f 54/7/8 4/5/9 55/15/8
f 52/10/10 2/8/10 53/16/10
f 1/12/11 51/17/11 8/18/11
f 50/19/12 7/2/12 14/20/12
f 5/6/13 13/21/13 6/14/13
f 3/9/14 11/22/15 4/5/14
f 1/12/16 9/23/16 2/8/16
f 6/14/17 14/20/17 7/2/17
f 4/5/18 12/24/19 5/6/18
f 3/9/20 9/23/20 10/25/20
f 12/24/21 20/26/21 13/21/21
f 10/25/22 18/27/22 11/22/22
f 8/18/23 16/28/23 9/23/23
f 13/21/24 21/29/24 14/20/24
f 12/24/25 18/27/26 19/30/26
f 10/25/27 16/28/27 17/31/27
f 8/18/28 51/32/28 15/33/28
f 50/34/29 14/20/29 21/29/29
f 20/26/30 28/35/30 21/29/30
f 19/30/31 25/36/31 26/37/31
f 16/28/32 24/38/32 17/31/32
f 15/33/33 51/39/33 22/40/33
f 50/41/34 21/29/34 28/35/34
f 19/30/35 27/42/35 20/26/35
f 17/31/36 25/36/36 18/27/37
f 15/33/38 23/43/38 16/28/38
f 25/36/39 33/44/39 26/37/39
f 23/43/40 31/45/40 24/38/40
f 22/40/41 51/46/41 29/47/41
f 50/48/42 28/35/42 35/49/42
f 26/37/43 34/50/43 27/42/43
f 25/36/44 31/45/44 32/51/45
f 22/40/46 30/52/46 23/43/46
f 27/42/47 35/49/47 28/35/47
f 50/53/48 35/49/48 42/54/48
f 33/44/49 41/55/49 34/50/49
f 31/45/50 39/56/51 32/51/50
f 29/47/52 37/57/52 30/52/52
f 34/50/53 42/54/53 35/49/53
f 33/44/54 39/56/55 40/58/55
f 30/52/56 38/59/56 31/45/56
f 29/47/57 51/60/57 36/61/57
f 39/62/58 45/63/59 46/64/59
f 36/65/60 44/66/60 37/67/60
f 41/68/61 49/69/61 42/70/61
f 39/62/62 47/71/62 40/72/62
f 37/67/63 45/63/63 38/73/63
f 36/65/64 51/74/64 43/75/64
f 50/76/65 42/70/65 49/69/65
f 40/72/66 48/77/66 41/68/66
f 48/77/67 58/3/67 49/69/67
f 47/71/68 55/15/68 56/4/68
f 44/66/69 54/7/69 45/63/69
f 43/75/70 51/78/70 52/10/70
f 50/79/71 49/69/71 58/3/71
f 47/71/72 57/1/72 48/77/72
f 45/63/73 55/15/73 46/64/74
f 43/75/75 53/16/75 44/66/75
f 57/1/1 6/14/1 7/2/1
f 56/4/2 55/15/2 4/5/2
f 54/7/4 53/16/4 2/8/4
f 56/4/7 5/6/7 6/14/7
f 54/7/8 3/9/9 4/5/9
f 52/10/10 1/12/10 2/8/10
f 5/6/13 12/24/13 13/21/13
f 3/9/14 10/25/15 11/22/15
f 1/12/16 8/18/16 9/23/16
f 6/14/17 13/21/17 14/20/17
f 4/5/18 11/22/19 12/24/19
f 3/9/20 2/8/20 9/23/20
f 12/24/21 19/30/21 20/26/21
f 10/25/22 17/31/76 18/27/22
f 8/18/23 15/33/23 16/28/23
f 13/21/24 20/26/24 21/29/24
f 12/24/25 11/22/25 18/27/26
f 10/25/27 9/23/27 16/28/27
f 20/26/30 27/42/30 28/35/30
f 19/30/31 18/27/77 25/36/31
f 16/28/32 23/43/32 24/38/32
f 19/30/35 26/37/35 27/42/35
f 17/31/36 24/38/36 25/36/36
f 15/33/38 22/40/38 23/43/38
f 25/36/39 32/51/78 33/44/39
f 23/43/40 30/52/40 31/45/40
f 26/37/43 33/44/43 34/50/43
f 25/36/44 24/38/44 31/45/44
f 22/40/46 29/47/46 30/52/46
f 27/42/47 34/50/47 35/49/47
f 33/44/49 40/58/49 41/55/49
f 31/45/50 38/59/51 39/56/51
f 29/47/52 36/61/52 37/57/52
f 34/50/53 41/55/53 42/54/53
f 33/44/54 32/51/54 39/56/55
f 30/52/56 37/57/56 38/59/56
f 39/62/58 38/73/58 45/63/59
f 36/65/60 43/75/60 44/66/60
f 41/68/61 48/77/61 49/69/61
f 39/62/62 46/64/79 47/71/62
f 37/67/63 44/66/63 45/63/63
f 40/72/66 47/71/66 48/77/66
f 48/77/67 57/1/67 58/3/67
f 47/71/68 46/64/80 55/15/68
f 44/66/69 53/16/69 54/7/69
f 47/71/72 56/4/72 57/1/72
f 45/63/73 54/7/73 55/15/73
f 43/75/75 52/10/75 53/16/75
