# Blender 4.4.1
# www.blender.org
mtllib goal.mtl
o 立方体
v 0.443308 -0.357471 0.443308
v 0.443308 0.529145 0.443308
v -0.443308 -0.357471 0.443308
v -0.443308 0.529145 0.443308
v 0.443308 -0.357471 -0.443308
v 0.443308 0.529145 -0.443308
v -0.443308 -0.357471 -0.443308
v -0.443308 0.529145 -0.443308
v -0.132570 0.526048 0.217798
v -0.130022 0.526048 0.191935
v -0.122478 0.526048 0.167065
v -0.110228 0.526048 0.144146
v -0.093741 0.526048 0.124057
v -0.073652 0.526048 0.107570
v -0.050732 0.526048 0.095319
v -0.025863 0.526048 0.087775
v -0.000000 0.526048 0.085228
v 0.025863 0.526048 0.087775
v 0.050732 0.526048 0.095319
v 0.073652 0.526048 0.107570
v 0.093741 0.526048 0.124057
v 0.110228 0.526048 0.144146
v 0.122478 0.526048 0.167065
v 0.130022 0.526048 0.191935
v 0.132570 0.526048 0.217798
v 0.130022 0.526048 0.243661
v 0.122478 0.526048 0.268530
v 0.110228 0.526048 0.291449
v 0.093741 0.526048 0.311539
v 0.073652 0.526048 0.328025
v 0.050732 0.526048 0.340276
v 0.025863 0.526048 0.347820
v -0.000000 0.526048 0.350367
v -0.025863 0.526048 0.347820
v -0.050732 0.526048 0.340276
v -0.073652 0.526048 0.328025
v -0.093741 0.526048 0.311539
v -0.110228 0.526048 0.291449
v -0.122478 0.526048 0.268530
v -0.130022 0.526048 0.243661
v -0.000000 0.791188 0.217798
v -0.132570 0.526048 -0.208417
v -0.130022 0.526048 -0.234280
v -0.122478 0.526048 -0.259149
v -0.110228 0.526048 -0.282068
v -0.093741 0.526048 -0.302158
v -0.073652 0.526048 -0.318644
v -0.050732 0.526048 -0.330895
v -0.025863 0.526048 -0.338439
v -0.000000 0.526048 -0.340986
v 0.025863 0.526048 -0.338439
v 0.050732 0.526048 -0.330895
v 0.073652 0.526048 -0.318644
v 0.093741 0.526048 -0.302158
v 0.110228 0.526048 -0.282068
v 0.122478 0.526048 -0.259149
v 0.130022 0.526048 -0.234280
v 0.132570 0.526048 -0.208417
v 0.130022 0.526048 -0.182554
v 0.122478 0.526048 -0.157684
v 0.110228 0.526048 -0.134765
v 0.093741 0.526048 -0.114676
v 0.073652 0.526048 -0.098189
v 0.050732 0.526048 -0.085938
v 0.025863 0.526048 -0.078394
v -0.000000 0.526048 -0.075847
v -0.025863 0.526048 -0.078394
v -0.050732 0.526048 -0.085938
v -0.073652 0.526048 -0.098189
v -0.093741 0.526048 -0.114676
v -0.110228 0.526048 -0.134765
v -0.122478 0.526048 -0.157684
v -0.130022 0.526048 -0.182554
v -0.000000 0.791188 -0.208417
vn -0.0000 -0.0000 1.0000
vn -1.0000 -0.0000 -0.0000
vn -0.0000 -0.0000 -1.0000
vn 1.0000 -0.0000 -0.0000
vn -0.0000 -1.0000 -0.0000
vn -0.0000 1.0000 -0.0000
vn -0.8944 0.4472 -0.0000
vn -0.8772 0.4472 -0.1745
vn -0.8263 0.4472 -0.3423
vn -0.7437 0.4472 -0.4969
vn -0.6325 0.4472 -0.6325
vn -0.4969 0.4472 -0.7437
vn -0.3423 0.4472 -0.8263
vn -0.1745 0.4472 -0.8772
vn -0.0000 0.4472 -0.8944
vn 0.1745 0.4472 -0.8772
vn 0.3423 0.4472 -0.8263
vn 0.4969 0.4472 -0.7437
vn 0.6325 0.4472 -0.6325
vn 0.7437 0.4472 -0.4969
vn 0.8263 0.4472 -0.3423
vn 0.8772 0.4472 -0.1745
vn 0.8944 0.4472 -0.0000
vn 0.8772 0.4472 0.1745
vn 0.8263 0.4472 0.3423
vn 0.7437 0.4472 0.4969
vn 0.6325 0.4472 0.6325
vn 0.4969 0.4472 0.7437
vn 0.3423 0.4472 0.8263
vn 0.1745 0.4472 0.8772
vn -0.0000 0.4472 0.8944
vn -0.1745 0.4472 0.8772
vn -0.3423 0.4472 0.8263
vn -0.4969 0.4472 0.7437
vn -0.6325 0.4472 0.6325
vn -0.7437 0.4472 0.4969
vn -0.8263 0.4472 0.3423
vn -0.8772 0.4472 0.1745
vn 0.0001 -1.0000 -0.0000
vn -0.0001 -1.0000 -0.0000
vt 0.498306 0.006891
vt 0.251752 0.253445
vt 0.251752 0.006891
vt 0.498306 0.253445
vt 0.251752 0.500000
vt 0.498306 0.500000
vt 0.251752 0.746555
vt 0.498306 0.746555
vt 0.251752 0.993109
vt 0.005197 0.746555
vt 0.005197 0.500000
vt 0.744861 0.500000
vt 0.846777 0.119468
vt 0.793922 0.103434
vt 0.848889 0.108848
vt 0.848889 0.098020
vt 0.846777 0.087401
vt 0.842633 0.077397
vt 0.836618 0.068394
vt 0.828961 0.060738
vt 0.819959 0.054722
vt 0.809955 0.050579
vt 0.799336 0.048467
vt 0.788508 0.048467
vt 0.777888 0.050579
vt 0.767885 0.054723
vt 0.758882 0.060738
vt 0.751226 0.068394
vt 0.745210 0.077397
vt 0.741066 0.087401
vt 0.738954 0.098020
vt 0.738954 0.108848
vt 0.741066 0.119468
vt 0.745210 0.129471
vt 0.751226 0.138474
vt 0.758882 0.146130
vt 0.767885 0.152146
vt 0.777888 0.156289
vt 0.788508 0.158402
vt 0.799336 0.158402
vt 0.809955 0.156289
vt 0.819959 0.152146
vt 0.828961 0.146130
vt 0.836618 0.138474
vt 0.775760 0.307013
vt 0.816061 0.340088
vt 0.782987 0.380390
vt 0.842633 0.129471
vt 0.836618 0.269171
vt 0.793922 0.234131
vt 0.842633 0.260168
vt 0.846777 0.250164
vt 0.848889 0.239545
vt 0.848889 0.228717
vt 0.846777 0.218097
vt 0.842633 0.208094
vt 0.836618 0.199091
vt 0.828961 0.191435
vt 0.819959 0.185419
vt 0.809955 0.181275
vt 0.799335 0.179163
vt 0.788508 0.179163
vt 0.777888 0.181275
vt 0.767885 0.185419
vt 0.758882 0.191435
vt 0.751226 0.199091
vt 0.745210 0.208094
vt 0.741066 0.218097
vt 0.738954 0.228717
vt 0.738954 0.239545
vt 0.741066 0.250164
vt 0.745210 0.260168
vt 0.751226 0.269171
vt 0.758882 0.276827
vt 0.767885 0.282842
vt 0.777888 0.286986
vt 0.788508 0.289098
vt 0.799335 0.289098
vt 0.809955 0.286986
vt 0.819959 0.282842
vt 0.782987 0.405765
vt 0.816061 0.446066
vt 0.775760 0.479141
vt 0.828961 0.276827
vt 0.498306 0.993109
vt 0.744861 0.746555
vt 0.782987 0.307013
vt 0.790075 0.308423
vt 0.796752 0.311189
vt 0.802761 0.315204
vt 0.807871 0.320314
vt 0.811886 0.326323
vt 0.814652 0.333000
vt 0.816061 0.347315
vt 0.814651 0.354403
vt 0.811886 0.361080
vt 0.807871 0.367089
vt 0.802761 0.372199
vt 0.796752 0.376214
vt 0.790075 0.378980
vt 0.775760 0.380390
vt 0.768672 0.378980
vt 0.761995 0.376214
vt 0.755986 0.372199
vt 0.750876 0.367089
vt 0.742685 0.347315
vt 0.746861 0.361080
vt 0.744095 0.354403
vt 0.742685 0.340088
vt 0.744095 0.333000
vt 0.746861 0.326323
vt 0.750876 0.320314
vt 0.755986 0.315204
vt 0.761995 0.311189
vt 0.768672 0.308423
vt 0.768672 0.477731
vt 0.761995 0.474965
vt 0.755986 0.470950
vt 0.750876 0.465840
vt 0.746861 0.459831
vt 0.742685 0.438839
vt 0.744095 0.453154
vt 0.742685 0.446066
vt 0.744095 0.431751
vt 0.746861 0.425074
vt 0.750876 0.419065
vt 0.755986 0.413955
vt 0.761995 0.409940
vt 0.768672 0.407175
vt 0.775760 0.405765
vt 0.790075 0.407175
vt 0.796752 0.409940
vt 0.802761 0.413955
vt 0.807871 0.419065
vt 0.811886 0.425074
vt 0.814651 0.431751
vt 0.816061 0.438839
vt 0.814651 0.453154
vt 0.811886 0.459831
vt 0.807871 0.465840
vt 0.802761 0.470950
vt 0.796752 0.474965
vt 0.790075 0.477731
vt 0.782987 0.479141
s 1
usemtl マテリアル
f 2/1/1 3/2/1 1/3/1
f 4/4/2 7/5/2 3/2/2
f 8/6/3 5/7/3 7/5/3
f 6/8/4 1/9/4 5/7/4
f 7/5/5 1/10/5 3/11/5
f 4/12/6 6/8/6 8/6/6
f 9/13/7 41/14/6 10/15/8
f 10/15/8 41/14/6 11/16/9
f 11/16/9 41/14/6 12/17/10
f 12/17/10 41/14/6 13/18/11
f 13/18/11 41/14/6 14/19/12
f 14/19/12 41/14/6 15/20/13
f 15/20/13 41/14/6 16/21/14
f 16/21/14 41/14/6 17/22/15
f 17/22/15 41/14/6 18/23/16
f 18/23/16 41/14/6 19/24/17
f 19/24/17 41/14/6 20/25/18
f 20/25/18 41/14/6 21/26/19
f 21/26/19 41/14/6 22/27/20
f 22/27/20 41/14/6 23/28/21
f 23/28/21 41/14/6 24/29/22
f 24/29/22 41/14/6 25/30/23
f 25/30/23 41/14/6 26/31/24
f 26/31/24 41/14/6 27/32/25
f 27/32/25 41/14/6 28/33/26
f 28/33/26 41/14/6 29/34/27
f 29/34/27 41/14/6 30/35/28
f 30/35/28 41/14/6 31/36/29
f 31/36/29 41/14/6 32/37/30
f 32/37/30 41/14/6 33/38/31
f 33/38/31 41/14/6 34/39/32
f 34/39/32 41/14/6 35/40/33
f 35/40/33 41/14/6 36/41/34
f 36/41/34 41/14/6 37/42/35
f 37/42/35 41/14/6 38/43/36
f 38/43/36 41/14/6 39/44/37
f 40/45/5 16/46/5 24/47/5
f 39/44/37 41/14/6 40/48/38
f 40/48/38 41/14/6 9/13/7
f 42/49/7 74/50/6 43/51/8
f 43/51/8 74/50/6 44/52/9
f 44/52/9 74/50/6 45/53/10
f 45/53/10 74/50/6 46/54/11
f 46/54/11 74/50/6 47/55/12
f 47/55/12 74/50/6 48/56/13
f 48/56/13 74/50/6 49/57/14
f 49/57/14 74/50/6 50/58/15
f 50/58/15 74/50/6 51/59/16
f 51/59/16 74/50/6 52/60/17
f 52/60/17 74/50/6 53/61/18
f 53/61/18 74/50/6 54/62/19
f 54/62/19 74/50/6 55/63/20
f 55/63/20 74/50/6 56/64/21
f 56/64/21 74/50/6 57/65/22
f 57/65/22 74/50/6 58/66/23
f 58/66/23 74/50/6 59/67/24
f 59/67/24 74/50/6 60/68/25
f 60/68/25 74/50/6 61/69/26
f 61/69/26 74/50/6 62/70/27
f 62/70/27 74/50/6 63/71/28
f 63/71/28 74/50/6 64/72/29
f 64/72/29 74/50/6 65/73/30
f 65/73/30 74/50/6 66/74/31
f 66/74/31 74/50/6 67/75/32
f 67/75/32 74/50/6 68/76/33
f 68/76/33 74/50/6 69/77/34
f 69/77/34 74/50/6 70/78/35
f 70/78/35 74/50/6 71/79/36
f 71/79/36 74/50/6 72/80/37
f 57/81/5 65/82/5 73/83/5
f 72/80/37 74/50/6 73/84/38
f 73/84/38 74/50/6 42/49/7
f 2/1/1 4/4/1 3/2/1
f 4/4/2 8/6/2 7/5/2
f 8/6/3 6/8/3 5/7/3
f 6/8/4 2/85/4 1/9/4
f 7/5/5 5/7/5 1/10/5
f 4/12/6 2/86/6 6/8/6
f 40/45/5 9/87/5 10/88/5
f 10/88/5 11/89/39 12/90/5
f 12/90/5 13/91/5 14/92/5
f 14/92/5 15/93/5 16/46/5
f 16/46/5 17/94/5 18/95/5
f 18/95/5 19/96/5 20/97/5
f 20/97/5 21/98/5 22/99/5
f 22/99/5 23/100/40 24/47/5
f 24/47/5 25/101/5 26/102/5
f 26/102/5 27/103/5 24/47/5
f 27/103/5 28/104/5 24/47/5
f 28/104/5 29/105/5 32/106/5
f 29/105/5 30/107/5 32/106/5
f 30/107/5 31/108/5 32/106/5
f 32/106/5 33/109/5 34/110/5
f 34/110/5 35/111/5 36/112/5
f 36/112/5 37/113/5 40/45/5
f 37/113/5 38/114/5 40/45/5
f 38/114/5 39/115/39 40/45/5
f 40/45/5 10/88/5 12/90/5
f 12/90/5 14/92/5 40/45/5
f 14/92/5 16/46/5 40/45/5
f 16/46/5 18/95/5 20/97/5
f 20/97/5 22/99/5 24/47/5
f 32/106/5 34/110/5 40/45/5
f 34/110/5 36/112/5 40/45/5
f 16/46/5 20/97/5 24/47/5
f 24/47/5 28/104/5 40/45/5
f 28/104/5 32/106/5 40/45/5
f 73/83/5 42/116/5 43/117/5
f 43/117/5 44/118/5 45/119/5
f 45/119/5 46/120/5 49/121/5
f 46/120/5 47/122/5 49/121/5
f 47/122/5 48/123/5 49/121/5
f 49/121/5 50/124/5 51/125/5
f 51/125/5 52/126/5 53/127/5
f 53/127/5 54/128/5 57/81/5
f 54/128/5 55/129/5 57/81/5
f 55/129/5 56/130/5 57/81/5
f 57/81/5 58/131/5 59/132/5
f 59/132/5 60/133/40 61/134/5
f 61/134/5 62/135/5 63/136/5
f 63/136/5 64/137/5 65/82/5
f 65/82/5 66/138/5 67/139/5
f 67/139/5 68/140/5 69/141/5
f 69/141/5 70/142/5 73/83/5
f 70/142/5 71/143/5 73/83/5
f 71/143/5 72/144/39 73/83/5
f 73/83/5 43/117/5 45/119/5
f 49/121/5 51/125/5 57/81/5
f 51/125/5 53/127/5 57/81/5
f 57/81/5 59/132/5 61/134/5
f 61/134/5 63/136/5 57/81/5
f 63/136/5 65/82/5 57/81/5
f 65/82/5 67/139/5 69/141/5
f 73/83/5 45/119/5 49/121/5
f 65/82/5 69/141/5 73/83/5
f 73/83/5 49/121/5 57/81/5
