# Blender 4.4.1
# www.blender.org
mtllib block.mtl
o Cube
v -0.500000 0.500000 0.500000
v -0.500000 -0.500000 0.500000
v -0.500000 0.500000 -0.500000
v -0.500000 -0.500000 -0.500000
v 0.500000 0.500000 0.500000
v 0.500000 -0.500000 0.500000
v 0.500000 0.500000 -0.500000
v 0.500000 -0.500000 -0.500000
v 0.008900 0.500000 0.500000
v 0.001248 0.500000 -0.500000
v 0.242423 0.235724 -0.500000
v -0.215284 0.213945 0.500000
v 0.005113 0.500000 0.005113
v -0.007865 0.239210 -0.500000
v -0.242477 0.242477 -0.500000
v 0.500000 -0.025802 0.025802
v 0.500000 -0.021135 0.500000
v -0.500000 -0.030505 -0.500000
v 0.001519 0.218118 0.500000
v -0.500000 -0.026887 0.500000
v 0.222363 0.222363 0.500000
v -0.500000 -0.028800 -0.028800
v 0.500000 -0.030978 -0.500000
v 0.250257 -0.030860 -0.500000
v 0.253936 -0.500000 -0.500000
v 0.251991 -0.251991 -0.500000
v 0.259381 -0.022519 0.500000
v 0.250218 -0.500000 -0.250218
v 0.239050 -0.500000 0.500000
v -0.258360 -0.030619 -0.500000
v -0.253424 -0.500000 -0.500000
v -0.243881 -0.500000 0.243881
v -0.223740 -0.025298 0.500000
v -0.231046 -0.231045 0.500000
v -0.240595 -0.500000 0.500000
vn -0.0000 1.0000 -0.0000
vn -0.0000 -0.0000 -1.0000
vn 1.0000 -0.0000 -0.0000
vn -0.0000 -1.0000 -0.0000
vn -1.0000 -0.0000 -0.0000
vn -0.0000 -0.0000 1.0000
vt 0.564286 0.500000
vt 0.441643 0.622643
vt 0.442581 0.500000
vt 0.252645 0.811641
vt 0.184995 0.747821
vt 0.316465 0.747821
vt 0.316465 0.004358
vt 0.186160 0.134663
vt 0.184878 0.004358
vt 0.068644 0.500000
vt 0.005172 0.563472
vt 0.004358 0.500000
vt 0.316465 0.500000
vt 0.185417 0.631048
vt 0.185891 0.500000
vt 0.247661 0.320983
vt 0.187317 0.252179
vt 0.316465 0.252179
vt 0.564286 0.747821
vt 0.316465 0.872041
vt 0.068644 0.747821
vt 0.316465 0.373884
vt 0.440685 0.747821
vt 0.068644 0.252179
vt 0.184966 0.807704
vt 0.068644 0.004358
vt 0.186974 0.311809
vt 0.068644 0.934662
vt 0.130106 0.934180
vt 0.068644 0.995642
vt 0.184877 0.995642
vt 0.575770 0.066259
vt 0.637671 0.252179
vt 0.573002 0.252179
vt 0.576691 0.004358
vt 0.637671 0.004358
vt 0.316465 0.995642
vt 0.250972 0.931809
vt 0.068644 0.435714
vt 0.135297 0.433347
vt 0.245574 0.429441
vt 0.251836 0.869783
vt 0.007537 0.747821
vt 0.246609 0.375713
vt 0.068644 0.808928
vt 0.068644 0.316848
vt 0.184907 0.933751
vt 0.186285 0.431537
s 1
usemtl Material.005
f 5/1/1 13/2/1 9/3/1
f 15/4/2 18/5/2 3/6/2
f 7/7/3 16/8/3 23/9/3
f 2/10/4 32/11/4 35/12/4
f 1/13/5 22/14/5 20/15/5
f 21/16/6 17/17/6 5/18/6
f 7/19/1 13/2/1 5/1/1
f 10/20/2 15/4/2 3/6/2
f 5/18/3 16/8/3 7/7/3
f 4/21/4 32/11/4 2/10/4
f 3/6/5 22/14/5 1/13/5
f 9/22/6 21/16/6 5/18/6
f 13/2/1 1/13/1 9/3/1
f 13/2/1 10/23/1 3/6/1
f 16/8/3 17/17/3 6/24/3
f 22/14/5 18/5/5 4/21/5
f 30/25/2 4/21/2 18/5/2
f 16/8/3 8/26/3 23/9/3
f 22/14/5 2/10/5 20/15/5
f 27/27/6 6/24/6 17/17/6
f 25/28/2 26/29/2 8/30/2
f 26/29/2 23/31/2 8/30/2
f 28/32/4 6/33/4 29/34/4
f 28/32/4 25/35/4 8/36/4
f 7/37/2 23/31/2 11/38/2
f 35/39/6 34/40/6 2/10/6
f 1/13/6 20/15/6 12/41/6
f 34/40/6 20/15/6 2/10/6
f 15/4/2 30/25/2 18/5/2
f 21/16/6 27/27/6 17/17/6
f 7/19/1 10/23/1 13/2/1
f 10/20/2 14/42/2 15/4/2
f 5/18/3 17/17/3 16/8/3
f 4/21/4 31/43/4 32/11/4
f 3/6/5 18/5/5 22/14/5
f 9/22/6 19/44/6 21/16/6
f 13/2/1 3/6/1 1/13/1
f 30/25/2 31/45/2 4/21/2
f 16/8/3 6/24/3 8/26/3
f 22/14/5 4/21/5 2/10/5
f 27/27/6 29/46/6 6/24/6
f 26/29/2 24/47/2 23/31/2
f 28/32/4 8/36/4 6/33/4
f 23/31/2 24/47/2 11/38/2
f 11/38/2 14/42/2 10/20/2
f 10/20/2 7/37/2 11/38/2
f 20/15/6 33/48/6 12/41/6
f 12/41/6 19/44/6 9/22/6
f 9/22/6 1/13/6 12/41/6
f 34/40/6 33/48/6 20/15/6
